<?xml version="1.0" encoding="UTF-8"?>
<svg id="_3" data-name=" 3" xmlns="http://www.w3.org/2000/svg" viewBox="0 0 1128.71 750.22">
  <g id="REDUCIDO_NEGRO" data-name="REDUCIDO NEGRO">
    <path d="m777.73,750.22c-40.56,0-81.85-7.11-122.13-21.75-23.37-8.48-47.8-13.63-72.56-15.29-12.16-.92-25.73-.88-36.98-.04-25.44,1.77-49.91,6.94-73.07,15.39-133.59,48.5-284.14,11.47-374.71-92.1C34.91,563.98,0,470.99,0,374.58S34.38,186.53,96.82,114.31C188.3,8.52,336.16-27.71,473.49,21.96c22.96,8.23,46.87,13.31,70.9,15.03,13.92.96,26.02.98,39.92,0,24.01-1.72,47.87-6.8,70.86-15.11,137.32-49.57,285.12-13.29,376.56,92.43,62.53,72.21,96.98,164.66,96.98,260.27s-34.93,189.33-98.36,261.85c-64.69,73.96-156.6,113.78-252.6,113.78h-.02Zm-213.39-168.11c9.78,0,19.19.34,27.98,1,36.42,2.44,72.88,10.12,107.8,22.8,84.66,30.77,175.74,9.05,232.04-55.32,42.64-48.74,66.12-111.25,66.12-176s-23.15-126.39-65.19-174.94c-55.84-64.58-147.55-86.19-233.64-55.12-34.25,12.38-69.9,19.96-105.93,22.54-20.1,1.42-38.11,1.42-58.33,0-35.99-2.57-71.59-10.11-105.91-22.42-86.27-31.21-177.99-9.62-233.82,54.96-41.95,48.52-65.05,110.67-65.05,174.97s23.45,127.31,66.03,175.99c55.43,63.39,148.63,85.64,231.95,55.4,34.53-12.6,71-20.32,108.28-22.91,8.51-.64,17.94-.98,27.68-.98v.03Z"/>
    <path d="m564.34,411.26c-19.93,0-36.14-16.21-36.14-36.14s16.21-36.15,36.14-36.15,36.15,16.22,36.15,36.15-16.22,36.14-36.15,36.14Zm0-47.84c-6.45,0-11.69,5.25-11.69,11.7s5.25,11.69,11.69,11.69,11.7-5.25,11.7-11.69-5.25-11.7-11.7-11.7Z"/>
  </g>
</svg>